<?xml version="1.0" encoding="UTF-8" standalone="no"?>
<!-- Created with Inkscape (http://www.inkscape.org/) -->

<svg
   width="500"
   height="500"
   viewBox="0 0 500.00001 500"
   version="1.1"
   id="svg1091"
   inkscape:version="1.2.2 (b0a84865, 2022-12-01)"
   sodipodi:docname="bh-logo.svg"
   xmlns:inkscape="http://www.inkscape.org/namespaces/inkscape"
   xmlns:sodipodi="http://sodipodi.sourceforge.net/DTD/sodipodi-0.dtd"
   xmlns="http://www.w3.org/2000/svg"
   xmlns:svg="http://www.w3.org/2000/svg">
   <sodipodi:namedview
      id="namedview1093"
      pagecolor="#ffffff"
      bordercolor="#000000"
      borderopacity="0.25"
      inkscape:showpageshadow="2"
      inkscape:pageopacity="0.0"
      inkscape:pagecheckerboard="0"
      inkscape:deskcolor="#d1d1d1"
      inkscape:document-units="px"
      showgrid="false"
      inkscape:zoom="1.2938725"
      inkscape:cx="267.02786"
      inkscape:cy="154.1883"
      inkscape:window-width="2560"
      inkscape:window-height="1387"
      inkscape:window-x="1728"
      inkscape:window-y="25"
      inkscape:window-maximized="1"
      inkscape:current-layer="layer1" />
   <defs
      id="defs1088">


   </defs>
   <g
      inkscape:label="Layer 1"
      inkscape:groupmode="layer"
      id="layer1"
      transform="matrix(0.24587354,0,0,0.24659732,3.1204717,2.2185882)">
      <path
         id="path1"
         d="m 497.80006,1874.0712 c 424.7932,257.2775 984.71084,165.8109 1303.21304,-232.4466 322.0601,-402.7789 283.6649,-977.52094 -71.676,-1334.49251 -8.1534,-8.15342 -21.4954,-8.22754 -29.7229,0 -8.1534,8.15342 -8.2275,21.49538 0,29.64881 340.4424,342.07303 377.1328,892.6513 68.5629,1278.6045 -305.0862,381.5801 -841.58125,469.1923 -1248.58517,222.7366 -9.93235,-6.0038 -22.82957,-2.8166 -28.90758,7.0416 -6.00388,9.9324 -2.81663,22.9037 7.11571,28.9076 z"
         style="clip-rule:evenodd;fill:#ffffff;fill-rule:evenodd;stroke-width:7.4122;stroke-linejoin:round;stroke-miterlimit:2" />
      <path
         id="path2"
         d="M 1510.3807,135.53966 C 1083.2898,-123.14613 520.33315,-29.011185 203.09098,373.1748 c -317.98338,403.07545 -277.661015,974.1855 75.67857,1329.2299 8.22754,8.2275 21.49538,8.2275 29.72292,0.074 8.22754,-8.1534 8.30167,-21.4954 0.0741,-29.7229 C -30.022712,1332.61 -68.640275,785.36725 236.07528,399.19162 540.04961,13.905455 1079.3613,-76.375144 1488.5889,171.48883 c 9.9323,6.00388 22.8295,2.81664 28.8334,-7.11571 6.0039,-9.93235 2.8167,-22.82958 -7.0416,-28.83346 z"
         style="clip-rule:evenodd;fill:#ffffff;fill-rule:evenodd;stroke-width:7.4122;stroke-linejoin:round;stroke-miterlimit:2" />
      <path
         id="path5"
         style="clip-rule:evenodd;fill:#ffffff;fill-rule:evenodd;stroke-width:10.8656;stroke-linejoin:round;stroke-miterlimit:2"
         d="m 1705.8071,91.464494 c -4.7171,-0.355786 -9.521,1.569904 -12.6704,5.528019 l -570.6535,717.111837 33.0296,25.9553 570.4948,-716.91393 c 5.0395,-6.33298 4.0485,-15.62788 -2.3201,-20.6956 l -9.8656,-7.841371 c -2.3882,-1.900488 -5.1848,-2.933008 -8.0148,-3.144255 z M 409.33694,343.79728 v 19.3414 h 26.87367 c 26.87293,0 46.22248,7.53154 60.1967,22.58053 10.74917,11.82394 15.0527,39.76497 15.0527,83.83643 v 460.07452 c 0,39.77239 -3.22801,65.56684 -11.82765,78.46634 -12.89871,18.2733 -34.39854,27.9506 -63.42175,27.9506 h -26.87367 v 19.3496 h 335.37982 c 16.45508,0 31.96363,-0.3336 46.63682,-0.9584 l 41.23555,-52.4643 c -27.57857,10.5171 -60.79709,15.8013 -99.70076,15.8013 -39.77238,0 -79.54625,-4.305 -120.3934,-13.9794 V 712.49495 c 9.6744,-2.15028 21.50501,-3.22579 37.62877,-4.30056 15.04899,0 33.32081,-1.07699 54.81915,-1.07699 50.52156,0 92.44645,7.52338 126.8435,22.57237 33.32303,13.97422 58.0405,34.39631 73.08949,60.19448 15.04899,25.79816 22.57533,51.60299 22.57533,79.55143 0,4.2509 -0.20754,8.41211 -0.54109,12.53033 l 91.72448,-116.69768 c -5.8727,-7.91845 -12.5777,-15.49298 -20.24048,-22.67614 -24.72339,-23.64863 -61.27073,-39.77461 -110.71751,-50.52379 41.92192,-13.97422 74.17463,-34.40076 95.67297,-62.34846 21.49832,-27.94844 33.32302,-60.18855 33.32302,-95.66111 0,-41.92192 -13.9779,-78.47 -41.92636,-110.71826 -27.9477,-32.24752 -67.72231,-54.82508 -120.3934,-66.64902 -34.3978,-8.59964 -80.62028,-12.89427 -137.59119,-12.89427 z m 297.75846,35.46664 c 64.49577,0 115.01659,13.97867 148.33962,44.07665 34.39705,29.02321 50.52081,64.49578 50.52081,106.4177 0,26.87219 -6.44861,51.59188 -20.42283,74.16499 -12.89945,22.57312 -33.32822,39.77461 -58.05161,50.52378 -25.79817,10.74992 -64.49207,17.19482 -116.0884,17.19482 -19.34881,0 -37.62062,-1.07032 -54.81915,-2.14583 -16.12376,-1.07477 -31.17942,-3.22801 -44.07887,-5.37829 V 390.01235 c 27.94844,-7.52486 59.12786,-10.74843 94.60043,-10.74843 z m 610.5622,581.66722 v 19.34955 h 25.793 c 17.1985,0 32.2475,4.30204 47.2965,12.90168 11.8247,6.44935 19.3503,13.97423 22.5753,22.57313 4.2998,10.7492 6.4509,35.4718 6.4509,72.0191 v 203.164 H 1089.771 V 1116.763 l -101.04239,128.5543 v 301.4467 c 0,42.9975 -4.30055,69.8719 -12.90019,80.621 -12.89871,17.1993 -34.40002,25.7967 -63.42249,25.7967 H 886.6137 v 19.3488 h 305.2729 v -19.3488 h -25.7929 c -17.1986,0 -33.3275,-4.2953 -48.3765,-12.8942 -10.7492,-6.4501 -18.2711,-13.9735 -21.4954,-22.5732 -4.2998,-11.8239 -6.4508,-35.4777 -6.4508,-70.9503 v -217.1352 h 330.0023 v 217.1352 c 0,42.9975 -4.3013,69.8719 -12.901,80.621 -12.8987,17.1993 -34.3985,25.7967 -63.4217,25.7967 h -25.793 v 19.3488 h 305.2737 v -19.3488 h -25.793 c -16.1237,0 -32.2534,-4.2953 -48.3772,-12.8942 -10.7492,-6.4501 -17.1956,-13.9735 -21.4954,-22.5732 -4.2998,-11.8239 -6.4501,-35.4777 -6.4501,-70.9503 v -458.9894 c 0,-35.4718 2.1503,-59.1234 6.4501,-69.8725 3.2251,-11.8247 10.7522,-20.42214 22.5761,-25.79673 15.049,-7.52486 31.1728,-11.82468 47.2965,-11.82468 h 25.793 V 960.93114 Z M 844.66287,1163.2316 269.21152,1886.3784 c -5.09589,6.4034 -4.04855,15.6287 2.32002,20.6964 l 9.86563,7.8488 c 6.36857,5.0684 15.59008,4.0122 20.68523,-2.392 l 575.60997,-723.3373 z" />
   </g>
</svg>